<svg width="613" height="531" xmlns="http://www.w3.org/2000/svg" clip-rule="evenodd" fill-rule="evenodd" image-rendering="optimizeQuality" text-rendering="geometricPrecision" shape-rendering="geometricPrecision">

 <g>
  <title>Layer 1</title>
  <path transform="rotate(76 60.5842 64.0556)" id="svg_1" d="m22.465,113.136c31.386,-25.228 67.041,-47.435 83.064,-62.714c5.281,-5.036 11.006,-12.153 1.663,-8.574c-25.872,9.91 -54.003,27.668 -75.003,49.745c2.547,-18.499 -2.366,-41.616 -9.997,-60.505c-0.938,-2.328 -3.886,-11.918 -7.546,-15.088c-1.359,-1.177 -2.82,-1.473 -4.308,-0.18c-0.849,0.738 -1.279,1.995 -1.333,3.707c-0.152,4.982 3.388,19.557 6.693,33.834c4.905,21.183 7.422,37.783 6.767,59.775z"/>
  <path transform="rotate(79 276.388 243.175)" id="svg_2" d="m279.172,264.348c-4.322,-22.157 -5.797,-44.278 -4.95,-66.742c-45.792,16.982 -86.744,47.758 -120.988,82.094c-41.377,41.487 -75.893,91.78 -100.677,142.433c-7.709,15.756 -12.142,22.106 -22.78,36.216c19.82,-95.783 137.212,-251.197 246.697,-274.194c14.308,-126.993 143.471,-209.871 246.526,-115.451c-95.354,-64.986 -210.522,-25.748 -234.658,113.479c11.685,-1.413 23.233,-1.218 34.515,0.824c26.693,4.831 52.462,12.783 72.736,38.719c28.125,35.979 26.324,94.976 -19.286,115.588c-54.862,24.792 -87.927,-25.74 -97.135,-72.966zm7.016,-67.488c-0.889,23.576 1.128,48.171 6.111,71.196c8.03,37.107 29.726,69.192 65.407,62.821c22.084,-3.944 35.695,-18.675 40.56,-38.117c17.522,-70.029 -62.617,-107.875 -112.078,-95.9z"/>
  <text transform="rotate(-13 449.875 474.5)" font-style="normal" font-weight="normal" xml:space="preserve" text-anchor="start" font-family="'Poppins'" font-size="32" stroke-width="0" fill="#000000" id="svg_3" y="486" x="301.99998">Click for a Surprise</text>
 </g>
</svg>